<!DOCTYPE svg PUBLIC "-//W3C//DTD SVG 1.1//EN" "http://www.w3.org/Graphics/SVG/1.1/DTD/svg11.dtd">

<!-- Uploaded to: SVG Repo, www.svgrepo.com, Transformed by: SVG Repo Mixer Tools -->
<svg width="800px" height="800px" viewBox="-3.36 -3.36 30.72 30.72" fill="none" xmlns="http://www.w3.org/2000/svg">

<g id="SVGRepo_bgCarrier" stroke-width="0"/>

<g id="SVGRepo_tracerCarrier" stroke-linecap="round" stroke-linejoin="round" stroke="current" stroke-width="3"> <g id="style=fill"> <g id="add"> <path id="Subtract" fill-rule="evenodd" clip-rule="evenodd" d="M1.25 7.25C1.25 3.93629 3.93629 1.25 7.25 1.25L16.75 1.25C20.0637 1.25 22.75 3.93629 22.75 7.25L22.75 16.75C22.75 20.0637 20.0637 22.75 16.75 22.75L7.25 22.75C3.93629 22.75 1.25 20.0637 1.25 16.75L1.25 7.25ZM12.0248 6.32352C12.3578 6.32352 12.6277 6.59348 12.6277 6.92649L12.6277 11.3687L17.2132 11.3687C17.5641 11.3687 17.8486 11.6532 17.8486 12.0041C17.8486 12.3551 17.5641 12.6395 17.2132 12.6395L12.6277 12.6395L12.6277 16.8281C12.6277 17.1611 12.3577 17.4311 12.0247 17.4311C11.6917 17.4311 11.4217 17.1611 11.4217 16.8281L11.4218 12.6395L6.77862 12.6395C6.42768 12.6395 6.1432 12.355 6.1432 12.0041C6.1432 11.6531 6.42769 11.3687 6.77862 11.3687L11.4218 11.3687L11.4218 6.92648C11.4218 6.59347 11.6917 6.32352 12.0248 6.32352Z" fill="#000000"/> </g> </g> </g>

<g id="SVGRepo_iconCarrier"> <g id="style=fill"> <g id="add"> <path id="Subtract" fill-rule="evenodd" clip-rule="evenodd" d="M1.25 7.25C1.25 3.93629 3.93629 1.25 7.25 1.25L16.75 1.25C20.0637 1.25 22.75 3.93629 22.75 7.25L22.75 16.75C22.75 20.0637 20.0637 22.75 16.75 22.75L7.25 22.75C3.93629 22.75 1.25 20.0637 1.25 16.75L1.25 7.25ZM12.0248 6.32352C12.3578 6.32352 12.6277 6.59348 12.6277 6.92649L12.6277 11.3687L17.2132 11.3687C17.5641 11.3687 17.8486 11.6532 17.8486 12.0041C17.8486 12.3551 17.5641 12.6395 17.2132 12.6395L12.6277 12.6395L12.6277 16.8281C12.6277 17.1611 12.3577 17.4311 12.0247 17.4311C11.6917 17.4311 11.4217 17.1611 11.4217 16.8281L11.4218 12.6395L6.77862 12.6395C6.42768 12.6395 6.1432 12.355 6.1432 12.0041C6.1432 11.6531 6.42769 11.3687 6.77862 11.3687L11.4218 11.3687L11.4218 6.92648C11.4218 6.59347 11.6917 6.32352 12.0248 6.32352Z" fill="current"/> </g> </g> </g>

</svg>